# xmcd
#
# Track frame offsets: 
#        150
#        12204
#        24116
#        34463
#        46062
#        58932
#        73003
#        82290
#        90662
#        101914
#        112939
#        124903
#        135936
#        149430
#        162373
#        175091
#        187648
#        197572
#        213272
#        224099
#        231638
#        240029
#        249845
#
# Disc length: 3490 seconds
#
# Revision: 0
# Processed by: cddbd v1.5.2PL0 Copyright (c) Steve Scherf et al.
# Submitted via: ExactAudioCopyFreeDBPlugin 1.0
#
DISCID=3e0da017
DTITLE=Philomena Begley and Ray Lynam - The Complete Duet Collection - C
DTITLE=D-1
DYEAR=2014
DGENRE=Country
TTITLE0=We Go Together
TTITLE1=Never Grow Cold
TTITLE2=Just Someone I Used To Know
TTITLE3=Silver Sandals
TTITLE4=You're The One I Can't Live Without
TTITLE5=Daddy Was An Old Time Preacher Man
TTITLE6=We're Locking Up Each Souvenir
TTITLE7=All These Little Things
TTITLE8=Seeing Eye To Eye
TTITLE9=We Believe In Each Other
TTITLE10=Jeannie's Afraid Of The Dark
TTITLE11=You And Me, Him And Her
TTITLE12=If You Were Mine
TTITLE13=Mr and Mrs Used To Be
TTITLE14=That's When My Baby Sings His Song
TTITLE15=In The Vine
TTITLE16=Anything's Better Than Nothing
TTITLE17=My Elusive Dreams
TTITLE18=We Found It
TTITLE19=Take My Hand
TTITLE20=We Love To Sing About Jesus
TTITLE21=Heaven Help The People
TTITLE22=We've Run Out Of Tomorrows
EXTD=
EXTT0=
EXTT1=
EXTT2=
EXTT3=
EXTT4=
EXTT5=
EXTT6=
EXTT7=
EXTT8=
EXTT9=
EXTT10=
EXTT11=
EXTT12=
EXTT13=
EXTT14=
EXTT15=
EXTT16=
EXTT17=
EXTT18=
EXTT19=
EXTT20=
EXTT21=
EXTT22=
PLAYORDER=
